# xmcd CD database file
#
# Track frame offsets:
#	150
#	14422
#	27706
#	48057
#	65495
#	78212
#	96321
#	118208
#	131964
#	146041
#	157302
#	174439
#	183927
#
# Disc length: 2748 seconds
#
# Revision: 0
# Processed by: cddbd v1.4PL0 Copyright (c) Steve Scherf et al.
# Submitted via: CDex 1.40Beta9
#
DISCID=bb0aba0d
DTITLE=Bob Brozman - Live Now
DYEAR=2001
DGENRE=Blues
TTITLE0=Down The Road
TTITLE1=Obvious Blues
TTITLE2=Hawaiian Medley
TTITLE3=So Sad Blues
TTITLE4=Cinemascope Calypso
TTITLE5=Telephone Arguin' Blues
TTITLE6=Hammock Blues
TTITLE7=Dinah
TTITLE8=My Mama's Getting Old
TTITLE9=Debussy in Reunion
TTITLE10=Mood Music For People in a Bad Mood
TTITLE11=Afrikanische Oom Pa Pa
TTITLE12=Late in the Evening- a Blues-Hop
EXTD=YEAR: 2001 ID3G: 0
EXTT0=
EXTT1=
EXTT2=
EXTT3=
EXTT4=
EXTT5=
EXTT6=
EXTT7=
EXTT8=
EXTT9=
EXTT10=
EXTT11=
EXTT12=
PLAYORDER=
